<svg width="100" height="100" viewBox="0 0 100 100" fill="none" xmlns="http://www.w3.org/2000/svg">
<path d="M50.1042 87.4936C66.4207 87.4936 79.6479 74.2664 79.6479 57.9499C79.6479 41.6334 66.4207 28.4062 50.1042 28.4062C33.7877 28.4062 20.5605 41.6334 20.5605 57.9499C20.5605 74.2664 33.7877 87.4936 50.1042 87.4936Z" fill="#F9C89B"/>
<mask id="mask0_246_2" style="mask-type:alpha" maskUnits="userSpaceOnUse" x="20" y="28" width="60" height="60">
<path d="M50.1042 87.4936C66.4207 87.4936 79.6479 74.2664 79.6479 57.9499C79.6479 41.6334 66.4207 28.4062 50.1042 28.4062C33.7877 28.4062 20.5605 41.6334 20.5605 57.9499C20.5605 74.2664 33.7877 87.4936 50.1042 87.4936Z" fill="#F9C89B"/>
</mask>
<g mask="url(#mask0_246_2)">
<ellipse cx="49.6632" cy="48.4007" rx="40.462" ry="4.27283" transform="rotate(-5.80626 49.6632 48.4007)" fill="#DFA46D"/>
</g>
<path d="M22.9546 69.5605C25.584 79.5524 50.3006 95.8548 50.3006 95.8548C50.3006 95.8548 73.3917 81.4354 77.1207 69.5605C77.1207 73.3169 66.7082 77.0732 50.3006 77.0732C33.893 77.0732 22.9546 73.3169 22.9546 69.5605Z" fill="#BCBCBC"/>
<path d="M42.076 59.9967C43.7387 59.9967 45.0866 58.6488 45.0866 56.9862C45.0866 55.3235 43.7387 53.9756 42.076 53.9756C40.4133 53.9756 39.0654 55.3235 39.0654 56.9862C39.0654 58.6488 40.4133 59.9967 42.076 59.9967Z" fill="black"/>
<path d="M58.1321 59.9967C59.7948 59.9967 61.1427 58.6488 61.1427 56.9862C61.1427 55.3235 59.7948 53.9756 58.1321 53.9756C56.4695 53.9756 55.1216 55.3235 55.1216 56.9862C55.1216 58.6488 56.4695 59.9967 58.1321 59.9967Z" fill="black"/>
<ellipse cx="49.6338" cy="45.4128" rx="40.462" ry="3.85352" transform="rotate(-4.09151 49.6338 45.4128)" fill="#502C8F"/>
<path d="M75.1524 4C82.2172 13.6338 21.2029 17.969 21.2031 47.6733C55.2426 48.3155 79.006 43.338 79.006 43.338C79.006 27.2817 102.769 14.2761 75.1524 4Z" fill="url(#paint0_linear_246_2)"/>
<defs>
<linearGradient id="paint0_linear_246_2" x1="54.8576" y1="4" x2="54.8576" y2="47.7305" gradientUnits="userSpaceOnUse">
<stop stop-color="#5D3A9B"/>
<stop offset="1" stop-color="#5C359F"/>
</linearGradient>
</defs>
</svg>
